<?xml version="1.0" encoding="UTF-8" standalone="no"?>
<!-- Created with Inkscape (http://www.inkscape.org/) -->

<svg
   width="176.4994"
   height="55.617641"
   viewBox="0 0 46.698801 14.715501"
   version="1.1"
   id="svg5"
   inkscape:version="1.1.1 (3bf5ae0d25, 2021-09-20)"
   sodipodi:docname="authenty.svg"
   inkscape:export-filename="O:\AUTHENTY\william\recursos\logo\authenty\AuthentyIntranetLogo_432x70.png"
   inkscape:export-xdpi="96"
   inkscape:export-ydpi="96"
   xmlns:inkscape="http://www.inkscape.org/namespaces/inkscape"
   xmlns:sodipodi="http://sodipodi.sourceforge.net/DTD/sodipodi-0.dtd"
   xmlns="http://www.w3.org/2000/svg"
   xmlns:svg="http://www.w3.org/2000/svg">
  <sodipodi:namedview
     id="namedview7"
     pagecolor="#ffffff"
     bordercolor="#666666"
     borderopacity="1.0"
     inkscape:pageshadow="2"
     inkscape:pageopacity="0.0"
     inkscape:pagecheckerboard="0"
     inkscape:document-units="px"
     showgrid="false"
     units="px"
     width="432mm"
     inkscape:zoom="1.28"
     inkscape:cx="61.328125"
     inkscape:cy="48.4375"
     inkscape:window-width="1427"
     inkscape:window-height="1040"
     inkscape:window-x="2097"
     inkscape:window-y="0"
     inkscape:window-maximized="0"
     inkscape:current-layer="text2814" />
  <defs
     id="defs2" />
  <g
     inkscape:label="Camada 1"
     inkscape:groupmode="layer"
     id="layer1"
     transform="translate(-2.9504915,-3.0753973)">
    <g
       aria-label="authenty"
       id="text2814"
       style="font-size:10.5833px;stroke-width:0.264583"
       transform="matrix(4.6960805,0,0,4.6960805,-180.75512,-112.36224)">
      <path
         d="m 39.80372,25.095916 q 0.283438,0 0.484102,0.200664 0.200664,0.200664 0.200664,0.484101 v 0.570638 q 0,0.04766 -0.03386,0.08027 -0.03386,0.03386 -0.08027,0.03386 h -0.0038 q -0.0464,0 -0.08026,-0.03386 -0.03386,-0.03261 -0.03386,-0.08027 v -0.05769 q -0.194393,0.171818 -0.452748,0.171818 -0.283437,0 -0.484101,-0.200663 -0.200664,-0.200664 -0.200664,-0.484102 0,-0.283437 0.200664,-0.484101 0.200664,-0.200664 0.484101,-0.200664 z m 0,0.232018 q -0.188122,0 -0.321062,0.132939 -0.131685,0.13294 -0.131685,0.319808 0,0.188123 0.131685,0.321062 0.13294,0.131686 0.321062,0.131686 0.188123,0 0.319808,-0.131686 0.13294,-0.132939 0.13294,-0.321062 0,-0.186868 -0.13294,-0.319808 -0.131685,-0.132939 -0.319808,-0.132939 z"
         style="-inkscape-font-specification:'Typo Round Regular Demo';fill:#000000;fill-opacity:1;stroke-width:0.0642125"
         id="path8178" />
      <path
         d="m 40.971333,25.211298 q 0,-0.04766 -0.03386,-0.08152 -0.03386,-0.03386 -0.08027,-0.03386 h -0.0038 q -0.0464,0 -0.08027,0.03386 -0.03386,0.03386 -0.03386,0.08152 v 0.686019 q 0,0.234526 0.166802,0.401328 0.166802,0.166801 0.402582,0.166801 0.234525,0 0.401327,-0.166801 0.166802,-0.166802 0.166802,-0.401328 v -0.686019 q 0,-0.04766 -0.03386,-0.08152 -0.03261,-0.03386 -0.08027,-0.03386 h -0.0025 q -0.04766,0 -0.08152,0.03386 -0.03386,0.03386 -0.03386,0.08152 v 0.686019 q 0,0.139211 -0.09782,0.238288 -0.09908,0.09782 -0.238288,0.09782 -0.140465,0 -0.239543,-0.09782 -0.09782,-0.09908 -0.09782,-0.238288 z"
         style="-inkscape-font-specification:'Typo Round Regular Demo';fill:#000000;fill-opacity:1;stroke-width:0.0642125"
         id="path8180" />
      <path
         d="m 42.245548,24.581715 q 0.0464,0 0.08027,0.03261 0.03386,0.03386 0.03386,0.08152 v 0.400073 h 0.225747 q 0.0464,0 0.08027,0.03386 0.03386,0.03386 0.03386,0.08152 v 0.0025 q 0,0.04766 -0.03386,0.08027 -0.03386,0.03386 -0.08027,0.03386 h -0.225747 v 0.781334 q 0,0.05142 0.03637,0.08779 0.03637,0.03637 0.08904,0.03637 h 0.100332 q 0.0464,0 0.08027,0.03386 0.03386,0.03386 0.03386,0.08152 v 0.0025 q 0,0.04766 -0.03386,0.08027 -0.03386,0.03386 -0.08027,0.03386 h -0.100332 q -0.147989,0 -0.253338,-0.104094 -0.104094,-0.105348 -0.104094,-0.252084 v -1.413425 q 0,-0.04766 0.03386,-0.08152 0.03386,-0.03261 0.08026,-0.03261 z"
         style="-inkscape-font-specification:'Typo Round Regular Demo';fill:#000000;fill-opacity:1;stroke-width:0.0642125"
         id="path8182" />
      <path
         d="m 42.99302,24.581715 q 0.0464,0 0.08027,0.03261 0.03386,0.03386 0.03386,0.08152 v 0.511692 q 0.149244,-0.111619 0.337366,-0.111619 0.234526,0 0.401327,0.166802 0.166802,0.166802 0.166802,0.402582 v 0.686019 q 0,0.04766 -0.03386,0.08027 -0.03261,0.03386 -0.08026,0.03386 h -0.0025 q -0.04766,0 -0.08152,-0.03386 -0.03386,-0.03261 -0.03386,-0.08027 v -0.686019 q 0,-0.139211 -0.09782,-0.238289 -0.09908,-0.09908 -0.238288,-0.09908 -0.140465,0 -0.239542,0.09908 -0.09782,0.09908 -0.09782,0.238289 v 0.686019 q 0,0.04766 -0.03386,0.08027 -0.03386,0.03386 -0.08027,0.03386 h -0.0038 q -0.0464,0 -0.08027,-0.03386 -0.03386,-0.03261 -0.03386,-0.08027 v -1.655476 q 0,-0.04766 0.03386,-0.08152 0.03386,-0.03261 0.08027,-0.03261 z"
         style="-inkscape-font-specification:'Typo Round Regular Demo';fill:#000000;fill-opacity:1;stroke-width:0.0642125"
         id="path8184" />
      <path
         d="m 44.910614,25.330442 q 0.210696,0 0.346145,0.161785 l -0.793877,0.358687 q -0.005,-0.03261 -0.005,-0.06647 0,-0.188122 0.131685,-0.321062 0.13294,-0.13294 0.321063,-0.13294 z m 0.622057,0.165547 q -0.08152,-0.179343 -0.248321,-0.288454 -0.16931,-0.111619 -0.373736,-0.111619 -0.283438,0 -0.484102,0.200664 -0.200664,0.200664 -0.200664,0.484101 0,0.283438 0.200664,0.484102 0.200664,0.200663 0.484102,0.200663 0.22073,0 0.400073,-0.129177 0.175581,-0.125415 0.245813,-0.328587 0.02007,-0.05644 -0.0138,-0.104094 -0.03512,-0.04891 -0.09406,-0.04891 -0.08277,0 -0.110365,0.07776 -0.0464,0.134194 -0.161785,0.218222 -0.119144,0.08654 -0.265879,0.08654 -0.220731,0 -0.356179,-0.173072 0.105349,-0.04766 0.460273,-0.208189 0.285946,-0.129177 0.461526,-0.208189 0.0439,-0.02007 0.0602,-0.06396 0.0163,-0.04515 -0.0038,-0.08779 z"
         style="-inkscape-font-specification:'Typo Round Regular Demo';fill:#000000;fill-opacity:1;stroke-width:0.0642125"
         id="path8186" />
      <path
         d="m 46.021789,26.351319 q 0,0.04766 -0.03386,0.08027 -0.03386,0.03386 -0.08026,0.03386 h -0.0038 q -0.0464,0 -0.08027,-0.03386 -0.03386,-0.03261 -0.03386,-0.08027 V 25.6653 q 0,-0.23578 0.166802,-0.402582 0.166802,-0.166802 0.402582,-0.166802 0.234526,0 0.401327,0.166802 0.166802,0.166802 0.166802,0.402582 v 0.686019 q 0,0.04766 -0.03386,0.08027 -0.03261,0.03386 -0.08026,0.03386 h -0.0025 q -0.04766,0 -0.08152,-0.03386 -0.03386,-0.03261 -0.03386,-0.08027 V 25.6653 q 0,-0.139211 -0.09782,-0.238289 -0.09908,-0.09908 -0.238288,-0.09908 -0.140465,0 -0.239542,0.09908 -0.09782,0.09908 -0.09782,0.238289 z"
         style="-inkscape-font-specification:'Typo Round Regular Demo';fill:#000000;fill-opacity:1;stroke-width:0.0642125"
         id="path8188" />
      <path
         d="m 47.296004,24.581715 q 0.0464,0 0.08026,0.03261 0.03386,0.03386 0.03386,0.08152 v 0.400073 h 0.225747 q 0.0464,0 0.08027,0.03386 0.03386,0.03386 0.03386,0.08152 v 0.0025 q 0,0.04766 -0.03386,0.08027 -0.03386,0.03386 -0.08027,0.03386 h -0.225747 v 0.781334 q 0,0.05142 0.03637,0.08779 0.03637,0.03637 0.08904,0.03637 h 0.100332 q 0.0464,0 0.08027,0.03386 0.03386,0.03386 0.03386,0.08152 v 0.0025 q 0,0.04766 -0.03386,0.08027 -0.03386,0.03386 -0.08027,0.03386 h -0.10032 q -0.147989,0 -0.253338,-0.104094 -0.104094,-0.105348 -0.104094,-0.252084 v -1.413425 q 0,-0.04766 0.03386,-0.08152 0.03386,-0.03261 0.08026,-0.03261 z"
         style="-inkscape-font-specification:'Typo Round Regular Demo';fill:#000000;fill-opacity:1;stroke-width:0.0642125"
         id="path8190" />
      <path
         d="m 48.157604,25.211298 c 0,-0.03177 -0.01129,-0.05895 -0.03386,-0.08152 -0.02257,-0.02257 -0.04933,-0.03386 -0.08026,-0.03386 h -0.0038 c -0.03094,0 -0.05769,0.01129 -0.08027,0.03386 -0.02257,0.02257 -0.03386,0.04975 -0.03386,0.08152 v 0.658428 c 0,0.157186 0.0556,0.290962 0.166802,0.401327 0.111201,0.111202 0.245395,0.166802 0.402582,0.166802 0.124578,0 0.236616,-0.03679 0.336112,-0.110365 v 0.823794 c 0,0.09197 -0.03386,0.166059 -0.101586,0.232947 -0.06689,0.06605 -0.145064,0.09908 -0.234526,0.09908 -0.07023,0 -0.135448,-0.01756 -0.195647,-0.05267 -0.05936,-0.03428 -0.104095,-0.07985 -0.134194,-0.136702 -0.01338,-0.02508 -0.03303,-0.04306 -0.05894,-0.05393 -0.02592,-0.01003 -0.05226,-0.01045 -0.07901,-0.0013 l -0.005,0.0025 c -0.03261,0.01087 -0.05518,0.03261 -0.06772,0.06521 -0.01338,0.03177 -0.01212,0.06313 0.0038,0.09406 0.04849,0.09531 0.119562,0.170982 0.213205,0.227001 0.09699,0.05853 0.204844,0.08779 0.32357,0.08779 0.14799,0 0.278839,-0.0556 0.392549,-0.166802 0.117054,-0.11371 0.17558,-0.242562 0.17558,-0.39724 v -1.939937 c 0,-0.03177 -0.01129,-0.05895 -0.03386,-0.08152 -0.02174,-0.02257 -0.04849,-0.03386 -0.08027,-0.03386 h -0.0025 c -0.03177,0 -0.05895,0.01129 -0.08152,0.03386 -0.02258,0.02258 -0.03386,0.04975 -0.03386,0.08152 v 0.658428 c 0,0.09364 -0.03303,0.173072 -0.09908,0.238288 -0.06522,0.06605 -0.144227,0.09908 -0.237034,0.09908 -0.09364,0 -0.17349,-0.03303 -0.239542,-0.09908 -0.06522,-0.06605 -0.09782,-0.145481 -0.09782,-0.238288 z"
         style="-inkscape-font-specification:'Typo Round Regular Demo';fill:#000000;fill-opacity:1;stroke-width:0.0642125"
         id="path8192"
         sodipodi:nodetypes="ssssssscscscsccccccccscsscssssscscss" />
    </g>
  </g>
</svg>
