<?xml version="1.0" encoding="UTF-8" standalone="no"?>
<svg
   viewBox="0 0 520.05 176.87"
   version="1.1"
   id="svg81"
   sodipodi:docname="logo.svg"
   inkscape:version="1.1.2 (0a00cf5339, 2022-02-04)"
   xmlns:inkscape="http://www.inkscape.org/namespaces/inkscape"
   xmlns:sodipodi="http://sodipodi.sourceforge.net/DTD/sodipodi-0.dtd"
   xmlns="http://www.w3.org/2000/svg"
   xmlns:svg="http://www.w3.org/2000/svg">
  <sodipodi:namedview
     id="namedview83"
     pagecolor="#ffffff"
     bordercolor="#666666"
     borderopacity="1.0"
     inkscape:pageshadow="2"
     inkscape:pageopacity="0.0"
     inkscape:pagecheckerboard="0"
     showgrid="false"
     inkscape:zoom="1.3258341"
     inkscape:cx="352.2311"
     inkscape:cy="58.830891"
     inkscape:window-width="1920"
     inkscape:window-height="1011"
     inkscape:window-x="0"
     inkscape:window-y="32"
     inkscape:window-maximized="1"
     inkscape:current-layer="c" />
  <defs
     id="defs4">
    <style
       id="style2">.d{fill:#232323;}</style>
  </defs>
  <g
     id="a" />
  <g
     id="b">
    <g
       id="c">
      <g
         id="g23">
        <path
           class="d"
           d="M59.37,36.31c6.79,6.8,10.19,14.99,10.19,24.59v28.99c0,1.61-.57,2.97-1.72,4.08-1.15,1.15-2.51,1.72-4.08,1.72h-.19c-1.57,0-2.93-.57-4.08-1.72-1.15-1.1-1.72-2.46-1.72-4.08v-2.93c-6.58,5.82-14.25,8.73-23,8.73-9.6,0-17.8-3.4-24.59-10.19C3.4,78.7,0,70.5,0,60.9s3.4-17.79,10.19-24.59c6.79-6.79,14.99-10.19,24.59-10.19s17.79,3.4,24.59,10.19Zm-40.9,8.35c-4.46,4.5-6.69,9.92-6.69,16.25s2.23,11.81,6.69,16.31c4.5,4.46,9.94,6.69,16.31,6.69s11.79-2.23,16.25-6.69c4.5-4.5,6.75-9.94,6.75-16.31s-2.25-11.74-6.75-16.25c-4.46-4.5-9.87-6.75-16.25-6.75s-11.81,2.25-16.31,6.75Z"
           id="path7" />
        <path
           class="d"
           d="M96.23,66.83c0,4.71,1.66,8.75,4.97,12.11,3.35,3.31,7.41,4.97,12.17,4.97s8.75-1.66,12.1-4.97c3.31-3.36,4.97-7.39,4.97-12.11V31.98c0-1.61,.57-2.99,1.72-4.14,1.15-1.15,2.53-1.72,4.14-1.72h.13c1.61,0,2.97,.57,4.08,1.72,1.15,1.15,1.72,2.53,1.72,4.14v34.85c0,7.94-2.83,14.74-8.47,20.39-5.65,5.65-12.44,8.47-20.39,8.47s-14.8-2.82-20.45-8.47c-5.65-5.65-8.47-12.44-8.47-20.39V31.98c0-1.61,.57-2.99,1.72-4.14,1.15-1.15,2.51-1.72,4.08-1.72h.19c1.57,0,2.93,.57,4.08,1.72,1.15,1.15,1.72,2.53,1.72,4.14v34.85Z"
           id="path9" />
        <path
           class="d"
           d="M163.08,0c1.57,0,2.93,.55,4.08,1.66,1.15,1.15,1.72,2.53,1.72,4.14V26.12h11.47c1.57,0,2.93,.57,4.08,1.72,1.15,1.15,1.72,2.53,1.72,4.14v.13c0,1.61-.57,2.97-1.72,4.08-1.15,1.15-2.51,1.72-4.08,1.72h-11.47v39.69c0,1.74,.62,3.23,1.85,4.46,1.23,1.23,2.74,1.85,4.52,1.85h5.1c1.57,0,2.93,.57,4.08,1.72,1.15,1.15,1.72,2.53,1.72,4.14v.13c0,1.61-.57,2.97-1.72,4.08-1.15,1.15-2.51,1.72-4.08,1.72h-5.1c-5.01,0-9.3-1.76-12.87-5.29-3.53-3.57-5.29-7.84-5.29-12.8V5.8c0-1.61,.57-2.99,1.72-4.14,1.15-1.1,2.51-1.66,4.08-1.66h.19Z"
           id="path11" />
        <path
           class="d"
           d="M203.18,0c1.57,0,2.93,.55,4.08,1.66,1.15,1.15,1.72,2.53,1.72,4.14V31.79c5.05-3.78,10.77-5.67,17.14-5.67,7.94,0,14.74,2.83,20.39,8.47,5.65,5.65,8.47,12.47,8.47,20.45v34.85c0,1.61-.57,2.97-1.72,4.08-1.11,1.15-2.46,1.72-4.08,1.72h-.13c-1.61,0-2.99-.57-4.14-1.72-1.15-1.1-1.72-2.46-1.72-4.08V55.04c0-4.71-1.66-8.75-4.97-12.1-3.36-3.35-7.39-5.03-12.1-5.03s-8.81,1.68-12.17,5.03c-3.31,3.36-4.97,7.39-4.97,12.1v34.85c0,1.61-.57,2.97-1.72,4.08-1.15,1.15-2.51,1.72-4.08,1.72h-.19c-1.57,0-2.93-.57-4.08-1.72-1.15-1.1-1.72-2.46-1.72-4.08V5.8c0-1.61,.57-2.99,1.72-4.14,1.15-1.1,2.51-1.66,4.08-1.66h.19Z"
           id="path13" />
        <path
           class="d"
           d="M334.32,46.44c.68,1.44,.74,2.93,.19,4.46-.55,1.49-1.57,2.57-3.06,3.25-5.95,2.68-13.76,6.2-23.44,10.58-12.02,5.44-19.81,8.96-23.38,10.58,4.59,5.86,10.62,8.79,18.09,8.79,4.97,0,9.47-1.47,13.5-4.4,3.91-2.84,6.65-6.54,8.22-11.08,.93-2.63,2.8-3.95,5.61-3.95,2,0,3.59,.83,4.78,2.49,1.15,1.61,1.38,3.38,.7,5.29-2.38,6.88-6.54,12.44-12.49,16.69-6.07,4.37-12.85,6.56-20.32,6.56-9.6,0-17.8-3.4-24.59-10.19-6.79-6.79-10.19-14.99-10.19-24.59s3.4-17.79,10.19-24.59c6.79-6.79,14.99-10.19,24.59-10.19,6.92,0,13.25,1.89,18.98,5.67,5.65,3.69,9.85,8.58,12.61,14.65Zm-31.6-8.41c-6.37,0-11.81,2.25-16.31,6.75-4.46,4.5-6.69,9.94-6.69,16.31,0,1.15,.08,2.27,.25,3.38l40.33-18.22c-4.59-5.48-10.45-8.22-17.58-8.22Z"
           id="path15" />
        <path
           class="d"
           d="M361.3,89.89c0,1.61-.57,2.97-1.72,4.08-1.15,1.15-2.51,1.72-4.08,1.72h-.19c-1.57,0-2.93-.57-4.08-1.72-1.15-1.1-1.72-2.46-1.72-4.08V55.04c0-7.98,2.82-14.8,8.47-20.45,5.65-5.65,12.46-8.47,20.45-8.47s14.74,2.83,20.39,8.47c5.65,5.65,8.47,12.47,8.47,20.45v34.85c0,1.61-.57,2.97-1.72,4.08-1.1,1.15-2.46,1.72-4.08,1.72h-.13c-1.62,0-2.99-.57-4.14-1.72-1.15-1.1-1.72-2.46-1.72-4.08V55.04c0-4.71-1.66-8.75-4.97-12.1-3.36-3.35-7.39-5.03-12.1-5.03s-8.81,1.68-12.17,5.03c-3.31,3.36-4.97,7.39-4.97,12.1v34.85Z"
           id="path17" />
        <path
           class="d"
           d="M428.15,0c1.57,0,2.93,.55,4.08,1.66,1.15,1.15,1.72,2.53,1.72,4.14V26.12h11.47c1.57,0,2.93,.57,4.08,1.72,1.15,1.15,1.72,2.53,1.72,4.14v.13c0,1.61-.57,2.97-1.72,4.08-1.15,1.15-2.51,1.72-4.08,1.72h-11.47v39.69c0,1.74,.62,3.23,1.85,4.46,1.23,1.23,2.74,1.85,4.52,1.85h5.1c1.57,0,2.93,.57,4.08,1.72,1.15,1.15,1.72,2.53,1.72,4.14v.13c0,1.61-.57,2.97-1.72,4.08-1.15,1.15-2.51,1.72-4.08,1.72h-5.1c-5.01,0-9.3-1.76-12.87-5.29-3.53-3.57-5.29-7.84-5.29-12.8V5.8c0-1.61,.57-2.99,1.72-4.14,1.15-1.1,2.5-1.66,4.08-1.66h.19Z"
           id="path19" />
        <path
           class="d"
           d="M474.05,65.43c0,4.71,1.66,8.75,4.97,12.1,3.35,3.36,7.41,5.03,12.17,5.03s8.73-1.68,12.04-5.03c3.35-3.31,5.03-7.35,5.03-12.1V31.98c0-1.61,.57-2.99,1.72-4.14,1.15-1.15,2.53-1.72,4.14-1.72h.13c1.61,0,2.97,.57,4.08,1.72,1.15,1.15,1.72,2.53,1.72,4.14v115.97c0,7.86-2.97,14.67-8.92,20.45-5.78,5.65-12.42,8.47-19.94,8.47-6.03,0-11.51-1.49-16.44-4.46-4.76-2.85-8.37-6.69-10.83-11.53-.81-1.57-.87-3.17-.19-4.78,.64-1.66,1.78-2.76,3.44-3.31l.25-.13c1.36-.47,2.7-.45,4.01,.06,1.32,.55,2.31,1.46,2.99,2.74,1.53,2.89,3.8,5.2,6.82,6.94,3.06,1.78,6.37,2.68,9.94,2.68,4.54,0,8.51-1.68,11.91-5.03,3.44-3.4,5.16-7.43,5.16-12.1v-59.27c-5.05,3.74-10.75,5.61-17.07,5.61-7.99,0-14.8-2.82-20.45-8.47-5.65-5.61-8.47-12.4-8.47-20.38V31.98c0-1.61,.57-2.99,1.72-4.14,1.15-1.15,2.5-1.72,4.08-1.72h.19c1.57,0,2.93,.57,4.08,1.72,1.15,1.15,1.72,2.53,1.72,4.14v33.45Z"
           id="path21" />
      </g>
    </g>
  </g>
</svg>
